<mxfile host="app.diagrams.net" modified="2024-05-01T02:24:21.568Z" agent="Mozilla/5.0 (Windows NT 10.0; Win64; x64) AppleWebKit/537.36 (KHTML, like Gecko) Chrome/124.0.0.0 Safari/537.36" etag="YRHmiKbk94wW2eARKmUX" version="24.2.2" type="device">
  <diagram name="Page-1" id="wuUiBbLOFHK4rCJIgRgd">
    <mxGraphModel dx="1103" dy="699" grid="1" gridSize="10" guides="1" tooltips="1" connect="1" arrows="1" fold="1" page="1" pageScale="1" pageWidth="827" pageHeight="1169" math="0" shadow="0">
      <root>
        <mxCell id="0" />
        <mxCell id="1" parent="0" />
        <mxCell id="EU3rWQ96eUJ0HlNLNpCg-1" value="From Guilios notes&lt;div&gt;Very basic diagram on what i think we expect&lt;/div&gt;" style="rounded=0;whiteSpace=wrap;html=1;" vertex="1" parent="1">
          <mxGeometry x="110" width="120" height="60" as="geometry" />
        </mxCell>
        <mxCell id="EU3rWQ96eUJ0HlNLNpCg-2" value="We Query the API" style="rounded=0;whiteSpace=wrap;html=1;" vertex="1" parent="1">
          <mxGeometry x="300" y="140" width="120" height="60" as="geometry" />
        </mxCell>
        <mxCell id="EU3rWQ96eUJ0HlNLNpCg-3" value="Student Project&lt;div&gt;&lt;br&gt;&lt;/div&gt;" style="ellipse;shape=cloud;whiteSpace=wrap;html=1;" vertex="1" parent="1">
          <mxGeometry x="40" y="130" width="120" height="80" as="geometry" />
        </mxCell>
        <mxCell id="EU3rWQ96eUJ0HlNLNpCg-7" value="&lt;br&gt;&lt;br&gt;API (Passwordless)" style="endArrow=classic;html=1;rounded=0;entryX=0.942;entryY=0.504;entryDx=0;entryDy=0;entryPerimeter=0;" edge="1" parent="1" source="EU3rWQ96eUJ0HlNLNpCg-2" target="EU3rWQ96eUJ0HlNLNpCg-3">
          <mxGeometry width="50" height="50" relative="1" as="geometry">
            <mxPoint x="270" y="220" as="sourcePoint" />
            <mxPoint x="320" y="170" as="targetPoint" />
          </mxGeometry>
        </mxCell>
        <mxCell id="EU3rWQ96eUJ0HlNLNpCg-8" value="Staging DB" style="shape=cylinder3;whiteSpace=wrap;html=1;boundedLbl=1;backgroundOutline=1;size=15;" vertex="1" parent="1">
          <mxGeometry x="330" y="230" width="60" height="80" as="geometry" />
        </mxCell>
        <mxCell id="EU3rWQ96eUJ0HlNLNpCg-9" value="Other DB Schemas" style="ellipse;shape=cloud;whiteSpace=wrap;html=1;" vertex="1" parent="1">
          <mxGeometry x="294" y="360" width="120" height="80" as="geometry" />
        </mxCell>
        <mxCell id="EU3rWQ96eUJ0HlNLNpCg-10" value="Processes/wrangles data to" style="endArrow=classic;html=1;rounded=0;exitX=0.5;exitY=1;exitDx=0;exitDy=0;exitPerimeter=0;" edge="1" parent="1" source="EU3rWQ96eUJ0HlNLNpCg-8" target="EU3rWQ96eUJ0HlNLNpCg-9">
          <mxGeometry width="50" height="50" relative="1" as="geometry">
            <mxPoint x="390" y="490" as="sourcePoint" />
            <mxPoint x="440" y="440" as="targetPoint" />
          </mxGeometry>
        </mxCell>
        <mxCell id="EU3rWQ96eUJ0HlNLNpCg-11" value="CL_Suburb&lt;div&gt;List of Suburbs&lt;/div&gt;" style="rounded=0;whiteSpace=wrap;html=1;" vertex="1" parent="1">
          <mxGeometry x="520" y="370" width="120" height="60" as="geometry" />
        </mxCell>
        <mxCell id="EU3rWQ96eUJ0HlNLNpCg-12" value="Web Example" style="endArrow=classic;html=1;rounded=0;exitX=0.875;exitY=0.5;exitDx=0;exitDy=0;exitPerimeter=0;" edge="1" parent="1" source="EU3rWQ96eUJ0HlNLNpCg-9" target="EU3rWQ96eUJ0HlNLNpCg-11">
          <mxGeometry width="50" height="50" relative="1" as="geometry">
            <mxPoint x="390" y="490" as="sourcePoint" />
            <mxPoint x="440" y="440" as="targetPoint" />
          </mxGeometry>
        </mxCell>
        <mxCell id="EU3rWQ96eUJ0HlNLNpCg-14" value="" style="endArrow=classic;html=1;rounded=0;exitX=0.5;exitY=1;exitDx=0;exitDy=0;" edge="1" parent="1" source="EU3rWQ96eUJ0HlNLNpCg-11">
          <mxGeometry width="50" height="50" relative="1" as="geometry">
            <mxPoint x="240" y="490" as="sourcePoint" />
            <mxPoint x="577.6923076923076" y="460" as="targetPoint" />
          </mxGeometry>
        </mxCell>
        <mxCell id="EU3rWQ96eUJ0HlNLNpCg-15" value="Suburbs" style="swimlane;fontStyle=0;childLayout=stackLayout;horizontal=1;startSize=30;horizontalStack=0;resizeParent=1;resizeParentMax=0;resizeLast=0;collapsible=1;marginBottom=0;whiteSpace=wrap;html=1;" vertex="1" parent="1">
          <mxGeometry x="520" y="465" width="140" height="120" as="geometry" />
        </mxCell>
        <mxCell id="EU3rWQ96eUJ0HlNLNpCg-16" value="Rolleston" style="text;strokeColor=none;fillColor=none;align=left;verticalAlign=middle;spacingLeft=4;spacingRight=4;overflow=hidden;points=[[0,0.5],[1,0.5]];portConstraint=eastwest;rotatable=0;whiteSpace=wrap;html=1;" vertex="1" parent="EU3rWQ96eUJ0HlNLNpCg-15">
          <mxGeometry y="30" width="140" height="30" as="geometry" />
        </mxCell>
        <mxCell id="EU3rWQ96eUJ0HlNLNpCg-17" value="Riccarton" style="text;strokeColor=none;fillColor=none;align=left;verticalAlign=middle;spacingLeft=4;spacingRight=4;overflow=hidden;points=[[0,0.5],[1,0.5]];portConstraint=eastwest;rotatable=0;whiteSpace=wrap;html=1;" vertex="1" parent="EU3rWQ96eUJ0HlNLNpCg-15">
          <mxGeometry y="60" width="140" height="30" as="geometry" />
        </mxCell>
        <mxCell id="EU3rWQ96eUJ0HlNLNpCg-18" value="Hornby" style="text;strokeColor=none;fillColor=none;align=left;verticalAlign=middle;spacingLeft=4;spacingRight=4;overflow=hidden;points=[[0,0.5],[1,0.5]];portConstraint=eastwest;rotatable=0;whiteSpace=wrap;html=1;" vertex="1" parent="EU3rWQ96eUJ0HlNLNpCg-15">
          <mxGeometry y="90" width="140" height="30" as="geometry" />
        </mxCell>
        <mxCell id="EU3rWQ96eUJ0HlNLNpCg-19" value="Web page will try to offer a list based on avaliable suburbs,&lt;div&gt;User chooses suburb&lt;/div&gt;&lt;div&gt;&lt;br&gt;Logic finds if the relevant dataset exists with suburb etc&amp;nbsp;&lt;/div&gt;" style="shape=note;whiteSpace=wrap;html=1;backgroundOutline=1;darkOpacity=0.05;" vertex="1" parent="1">
          <mxGeometry x="270" y="485" width="140" height="135" as="geometry" />
        </mxCell>
        <mxCell id="EU3rWQ96eUJ0HlNLNpCg-20" value="" style="endArrow=classic;html=1;rounded=0;exitX=0;exitY=0.5;exitDx=0;exitDy=0;" edge="1" parent="1" source="EU3rWQ96eUJ0HlNLNpCg-16" target="EU3rWQ96eUJ0HlNLNpCg-19">
          <mxGeometry width="50" height="50" relative="1" as="geometry">
            <mxPoint x="240" y="490" as="sourcePoint" />
            <mxPoint x="290" y="440" as="targetPoint" />
          </mxGeometry>
        </mxCell>
        <mxCell id="EU3rWQ96eUJ0HlNLNpCg-22" value="For now&lt;div&gt;we just focus on&lt;/div&gt;&lt;div&gt;showing tables with apis to prove we are collecting data from students apis&lt;/div&gt;" style="ellipse;whiteSpace=wrap;html=1;" vertex="1" parent="1">
          <mxGeometry x="10" y="270" width="160" height="120" as="geometry" />
        </mxCell>
      </root>
    </mxGraphModel>
  </diagram>
</mxfile>
